<mxfile host="app.diagrams.net" agent="Mozilla/5.0 (Windows NT 10.0; Win64; x64) AppleWebKit/537.36 (KHTML, like Gecko) Chrome/135.0.0.0 Safari/537.36" version="26.2.9">
  <diagram name="Page-1" id="wT3mlaJEniV8-HEzPOk0">
    <mxGraphModel dx="1428" dy="785" grid="1" gridSize="10" guides="1" tooltips="1" connect="1" arrows="1" fold="1" page="1" pageScale="1" pageWidth="827" pageHeight="1169" math="0" shadow="0">
      <root>
        <mxCell id="0" />
        <mxCell id="1" parent="0" />
        <mxCell id="bR4vBnd9DfTZjBkmj-Cn-1" value="" style="rounded=1;whiteSpace=wrap;html=1;fillColor=none;" parent="1" vertex="1">
          <mxGeometry x="40" y="80" width="160" height="600" as="geometry" />
        </mxCell>
        <mxCell id="bR4vBnd9DfTZjBkmj-Cn-2" value="Sources" style="rounded=1;whiteSpace=wrap;html=1;" parent="1" vertex="1">
          <mxGeometry x="60" y="60" width="120" height="30" as="geometry" />
        </mxCell>
        <mxCell id="bR4vBnd9DfTZjBkmj-Cn-4" value="" style="image;aspect=fixed;html=1;points=[];align=center;fontSize=12;image=img/lib/azure2/general/Folder_Blank.svg;" parent="1" vertex="1">
          <mxGeometry x="95.5" y="491.45" width="54.5" height="44.23" as="geometry" />
        </mxCell>
        <mxCell id="bR4vBnd9DfTZjBkmj-Cn-5" value="" style="image;aspect=fixed;html=1;points=[];align=center;fontSize=12;image=img/lib/azure2/general/Folder_Blank.svg;" parent="1" vertex="1">
          <mxGeometry x="92.75" y="220" width="54.5" height="44.23" as="geometry" />
        </mxCell>
        <mxCell id="bR4vBnd9DfTZjBkmj-Cn-6" value="" style="rounded=1;whiteSpace=wrap;html=1;fillColor=none;" parent="1" vertex="1">
          <mxGeometry x="240" y="120" width="200" height="560" as="geometry" />
        </mxCell>
        <mxCell id="bR4vBnd9DfTZjBkmj-Cn-7" value="Bronze Layer" style="rounded=1;whiteSpace=wrap;html=1;fillColor=#f8cecc;strokeColor=#b85450;" parent="1" vertex="1">
          <mxGeometry x="240" y="80" width="200" height="30" as="geometry" />
        </mxCell>
        <mxCell id="bR4vBnd9DfTZjBkmj-Cn-10" value="" style="endArrow=classic;html=1;rounded=0;strokeWidth=1;" parent="1" edge="1">
          <mxGeometry width="50" height="50" relative="1" as="geometry">
            <mxPoint x="160" y="241.89999999999998" as="sourcePoint" />
            <mxPoint x="260" y="241.62" as="targetPoint" />
          </mxGeometry>
        </mxCell>
        <mxCell id="bR4vBnd9DfTZjBkmj-Cn-11" value="crm_cust_info" style="rounded=1;whiteSpace=wrap;html=1;fillColor=#f8cecc;strokeColor=#b85450;" parent="1" vertex="1">
          <mxGeometry x="270" y="228.56" width="160" height="27.12" as="geometry" />
        </mxCell>
        <mxCell id="bR4vBnd9DfTZjBkmj-Cn-12" value="" style="endArrow=none;html=1;rounded=0;" parent="1" edge="1">
          <mxGeometry width="50" height="50" relative="1" as="geometry">
            <mxPoint x="220" y="320" as="sourcePoint" />
            <mxPoint x="220" y="160" as="targetPoint" />
          </mxGeometry>
        </mxCell>
        <mxCell id="bR4vBnd9DfTZjBkmj-Cn-13" value="crm_cust_info" style="rounded=1;whiteSpace=wrap;html=1;fillColor=#f8cecc;strokeColor=#b85450;" parent="1" vertex="1">
          <mxGeometry x="270" y="150" width="160" height="27.12" as="geometry" />
        </mxCell>
        <mxCell id="bR4vBnd9DfTZjBkmj-Cn-14" value="crm_cust_info" style="rounded=1;whiteSpace=wrap;html=1;fillColor=#f8cecc;strokeColor=#b85450;" parent="1" vertex="1">
          <mxGeometry x="270" y="300" width="160" height="27.12" as="geometry" />
        </mxCell>
        <mxCell id="bR4vBnd9DfTZjBkmj-Cn-15" value="" style="endArrow=classic;html=1;rounded=0;" parent="1" edge="1">
          <mxGeometry width="50" height="50" relative="1" as="geometry">
            <mxPoint x="220" y="320" as="sourcePoint" />
            <mxPoint x="260" y="320" as="targetPoint" />
          </mxGeometry>
        </mxCell>
        <mxCell id="bR4vBnd9DfTZjBkmj-Cn-18" value="" style="endArrow=classic;html=1;rounded=0;" parent="1" edge="1">
          <mxGeometry width="50" height="50" relative="1" as="geometry">
            <mxPoint x="220" y="160" as="sourcePoint" />
            <mxPoint x="260" y="160" as="targetPoint" />
          </mxGeometry>
        </mxCell>
        <mxCell id="bR4vBnd9DfTZjBkmj-Cn-20" value="CRM" style="text;html=1;align=center;verticalAlign=middle;whiteSpace=wrap;rounded=0;fillColor=none;fontStyle=1;fontSize=16;labelBackgroundColor=default;" parent="1" vertex="1">
          <mxGeometry x="92.75" y="270" width="60" height="30" as="geometry" />
        </mxCell>
        <mxCell id="bR4vBnd9DfTZjBkmj-Cn-21" value="ERP" style="text;html=1;align=center;verticalAlign=middle;whiteSpace=wrap;rounded=0;fillColor=none;fontStyle=1;fontSize=16;labelBackgroundColor=default;" parent="1" vertex="1">
          <mxGeometry x="95.5" y="540" width="60" height="30" as="geometry" />
        </mxCell>
        <mxCell id="bR4vBnd9DfTZjBkmj-Cn-22" value="" style="endArrow=classic;html=1;rounded=0;strokeWidth=1;" parent="1" edge="1">
          <mxGeometry width="50" height="50" relative="1" as="geometry">
            <mxPoint x="160" y="521.9" as="sourcePoint" />
            <mxPoint x="260" y="521.62" as="targetPoint" />
          </mxGeometry>
        </mxCell>
        <mxCell id="bR4vBnd9DfTZjBkmj-Cn-23" value="" style="endArrow=none;html=1;rounded=0;" parent="1" edge="1">
          <mxGeometry width="50" height="50" relative="1" as="geometry">
            <mxPoint x="220" y="600" as="sourcePoint" />
            <mxPoint x="220" y="440" as="targetPoint" />
          </mxGeometry>
        </mxCell>
        <mxCell id="bR4vBnd9DfTZjBkmj-Cn-24" value="" style="endArrow=classic;html=1;rounded=0;" parent="1" edge="1">
          <mxGeometry width="50" height="50" relative="1" as="geometry">
            <mxPoint x="220" y="440" as="sourcePoint" />
            <mxPoint x="260" y="440" as="targetPoint" />
          </mxGeometry>
        </mxCell>
        <mxCell id="bR4vBnd9DfTZjBkmj-Cn-25" value="" style="endArrow=classic;html=1;rounded=0;" parent="1" edge="1">
          <mxGeometry width="50" height="50" relative="1" as="geometry">
            <mxPoint x="220" y="600" as="sourcePoint" />
            <mxPoint x="260" y="600" as="targetPoint" />
          </mxGeometry>
        </mxCell>
        <mxCell id="bR4vBnd9DfTZjBkmj-Cn-26" value="crm_cust_info" style="rounded=1;whiteSpace=wrap;html=1;fillColor=#f8cecc;strokeColor=#b85450;" parent="1" vertex="1">
          <mxGeometry x="270" y="430" width="160" height="27.12" as="geometry" />
        </mxCell>
        <mxCell id="bR4vBnd9DfTZjBkmj-Cn-27" value="crm_cust_info" style="rounded=1;whiteSpace=wrap;html=1;fillColor=#f8cecc;strokeColor=#b85450;" parent="1" vertex="1">
          <mxGeometry x="270" y="508.56" width="160" height="27.12" as="geometry" />
        </mxCell>
        <mxCell id="bR4vBnd9DfTZjBkmj-Cn-28" value="crm_cust_info" style="rounded=1;whiteSpace=wrap;html=1;fillColor=#f8cecc;strokeColor=#b85450;" parent="1" vertex="1">
          <mxGeometry x="270" y="580" width="160" height="27.12" as="geometry" />
        </mxCell>
        <mxCell id="bR4vBnd9DfTZjBkmj-Cn-37" value="Silver Layer" style="rounded=1;whiteSpace=wrap;html=1;fillColor=#dae8fc;strokeColor=#6c8ebf;" parent="1" vertex="1">
          <mxGeometry x="480" y="80" width="200" height="30" as="geometry" />
        </mxCell>
        <mxCell id="bR4vBnd9DfTZjBkmj-Cn-38" value="" style="rounded=1;whiteSpace=wrap;html=1;fillColor=none;" parent="1" vertex="1">
          <mxGeometry x="480" y="120" width="200" height="560" as="geometry" />
        </mxCell>
        <mxCell id="bR4vBnd9DfTZjBkmj-Cn-39" value="crm_cust_info" style="rounded=1;whiteSpace=wrap;html=1;fillColor=#dae8fc;strokeColor=#6c8ebf;" parent="1" vertex="1">
          <mxGeometry x="510" y="150" width="160" height="27.12" as="geometry" />
        </mxCell>
        <mxCell id="bR4vBnd9DfTZjBkmj-Cn-40" value="crm_cust_info" style="rounded=1;whiteSpace=wrap;html=1;fillColor=#dae8fc;strokeColor=#6c8ebf;" parent="1" vertex="1">
          <mxGeometry x="510" y="228.56" width="160" height="27.12" as="geometry" />
        </mxCell>
        <mxCell id="bR4vBnd9DfTZjBkmj-Cn-41" value="crm_cust_info" style="rounded=1;whiteSpace=wrap;html=1;fillColor=#dae8fc;strokeColor=#6c8ebf;" parent="1" vertex="1">
          <mxGeometry x="510" y="300" width="160" height="27.12" as="geometry" />
        </mxCell>
        <mxCell id="bR4vBnd9DfTZjBkmj-Cn-42" value="crm_cust_info" style="rounded=1;whiteSpace=wrap;html=1;fillColor=#dae8fc;strokeColor=#6c8ebf;" parent="1" vertex="1">
          <mxGeometry x="510" y="430" width="160" height="27.12" as="geometry" />
        </mxCell>
        <mxCell id="bR4vBnd9DfTZjBkmj-Cn-43" value="crm_cust_info" style="rounded=1;whiteSpace=wrap;html=1;fillColor=#dae8fc;strokeColor=#6c8ebf;" parent="1" vertex="1">
          <mxGeometry x="510" y="508.56" width="160" height="27.12" as="geometry" />
        </mxCell>
        <mxCell id="bR4vBnd9DfTZjBkmj-Cn-44" value="crm_cust_info" style="rounded=1;whiteSpace=wrap;html=1;fillColor=#dae8fc;strokeColor=#6c8ebf;" parent="1" vertex="1">
          <mxGeometry x="510" y="580" width="160" height="27.12" as="geometry" />
        </mxCell>
        <mxCell id="bR4vBnd9DfTZjBkmj-Cn-47" value="" style="endArrow=classic;html=1;rounded=0;" parent="1" edge="1">
          <mxGeometry width="50" height="50" relative="1" as="geometry">
            <mxPoint x="430" y="160" as="sourcePoint" />
            <mxPoint x="510" y="160" as="targetPoint" />
          </mxGeometry>
        </mxCell>
        <mxCell id="bR4vBnd9DfTZjBkmj-Cn-48" value="" style="endArrow=classic;html=1;rounded=0;" parent="1" edge="1">
          <mxGeometry width="50" height="50" relative="1" as="geometry">
            <mxPoint x="430" y="240" as="sourcePoint" />
            <mxPoint x="510" y="240" as="targetPoint" />
          </mxGeometry>
        </mxCell>
        <mxCell id="bR4vBnd9DfTZjBkmj-Cn-49" value="" style="endArrow=classic;html=1;rounded=0;" parent="1" edge="1">
          <mxGeometry width="50" height="50" relative="1" as="geometry">
            <mxPoint x="430" y="313.06" as="sourcePoint" />
            <mxPoint x="510" y="313.06" as="targetPoint" />
          </mxGeometry>
        </mxCell>
        <mxCell id="bR4vBnd9DfTZjBkmj-Cn-56" value="" style="endArrow=classic;html=1;rounded=0;" parent="1" edge="1">
          <mxGeometry width="50" height="50" relative="1" as="geometry">
            <mxPoint x="430" y="440" as="sourcePoint" />
            <mxPoint x="510" y="440" as="targetPoint" />
          </mxGeometry>
        </mxCell>
        <mxCell id="bR4vBnd9DfTZjBkmj-Cn-57" value="" style="endArrow=classic;html=1;rounded=0;" parent="1" edge="1">
          <mxGeometry width="50" height="50" relative="1" as="geometry">
            <mxPoint x="430" y="521.62" as="sourcePoint" />
            <mxPoint x="510" y="521.62" as="targetPoint" />
          </mxGeometry>
        </mxCell>
        <mxCell id="bR4vBnd9DfTZjBkmj-Cn-58" value="" style="endArrow=classic;html=1;rounded=0;" parent="1" edge="1">
          <mxGeometry width="50" height="50" relative="1" as="geometry">
            <mxPoint x="430" y="593.06" as="sourcePoint" />
            <mxPoint x="510" y="593.06" as="targetPoint" />
          </mxGeometry>
        </mxCell>
        <mxCell id="1D17tGJ578Y-3MsZRP8g-1" value="Gold Layer" style="rounded=1;whiteSpace=wrap;html=1;fillColor=#ffe6cc;strokeColor=#d79b00;" vertex="1" parent="1">
          <mxGeometry x="760" y="90" width="200" height="30" as="geometry" />
        </mxCell>
        <mxCell id="1D17tGJ578Y-3MsZRP8g-2" value="" style="rounded=1;whiteSpace=wrap;html=1;fillColor=none;" vertex="1" parent="1">
          <mxGeometry x="760" y="130" width="200" height="560" as="geometry" />
        </mxCell>
        <mxCell id="1D17tGJ578Y-3MsZRP8g-3" value="fact_sales" style="rounded=1;whiteSpace=wrap;html=1;fillColor=#ffe6cc;strokeColor=#d79b00;" vertex="1" parent="1">
          <mxGeometry x="780" y="228.56" width="160" height="27.12" as="geometry" />
        </mxCell>
        <mxCell id="1D17tGJ578Y-3MsZRP8g-4" value="dim_customers" style="rounded=1;whiteSpace=wrap;html=1;fillColor=#ffe6cc;strokeColor=#d79b00;" vertex="1" parent="1">
          <mxGeometry x="780" y="378.56" width="160" height="27.12" as="geometry" />
        </mxCell>
        <mxCell id="1D17tGJ578Y-3MsZRP8g-5" value="dim_products" style="rounded=1;whiteSpace=wrap;html=1;fillColor=#ffe6cc;strokeColor=#d79b00;" vertex="1" parent="1">
          <mxGeometry x="790" y="520" width="160" height="27.12" as="geometry" />
        </mxCell>
        <mxCell id="1D17tGJ578Y-3MsZRP8g-6" value="" style="endArrow=classic;html=1;rounded=0;entryX=0;entryY=0.25;entryDx=0;entryDy=0;" edge="1" parent="1" target="1D17tGJ578Y-3MsZRP8g-3">
          <mxGeometry width="50" height="50" relative="1" as="geometry">
            <mxPoint x="680" y="177.12" as="sourcePoint" />
            <mxPoint x="730" y="127.12" as="targetPoint" />
          </mxGeometry>
        </mxCell>
        <mxCell id="1D17tGJ578Y-3MsZRP8g-7" value="" style="endArrow=classic;html=1;rounded=0;entryX=0;entryY=0.5;entryDx=0;entryDy=0;" edge="1" parent="1" target="1D17tGJ578Y-3MsZRP8g-4">
          <mxGeometry width="50" height="50" relative="1" as="geometry">
            <mxPoint x="670" y="255.68" as="sourcePoint" />
            <mxPoint x="770" y="313.56" as="targetPoint" />
          </mxGeometry>
        </mxCell>
        <mxCell id="1D17tGJ578Y-3MsZRP8g-8" value="" style="endArrow=classic;html=1;rounded=0;entryX=0;entryY=0.75;entryDx=0;entryDy=0;" edge="1" parent="1" target="1D17tGJ578Y-3MsZRP8g-5">
          <mxGeometry width="50" height="50" relative="1" as="geometry">
            <mxPoint x="670" y="327.12" as="sourcePoint" />
            <mxPoint x="770" y="385" as="targetPoint" />
          </mxGeometry>
        </mxCell>
        <mxCell id="1D17tGJ578Y-3MsZRP8g-9" value="" style="endArrow=classic;html=1;rounded=0;entryX=0;entryY=0.5;entryDx=0;entryDy=0;" edge="1" parent="1" target="1D17tGJ578Y-3MsZRP8g-4">
          <mxGeometry width="50" height="50" relative="1" as="geometry">
            <mxPoint x="670" y="440" as="sourcePoint" />
            <mxPoint x="770" y="497.88" as="targetPoint" />
          </mxGeometry>
        </mxCell>
        <mxCell id="1D17tGJ578Y-3MsZRP8g-10" value="" style="endArrow=classic;html=1;rounded=0;entryX=0;entryY=0.75;entryDx=0;entryDy=0;" edge="1" parent="1" target="1D17tGJ578Y-3MsZRP8g-4">
          <mxGeometry width="50" height="50" relative="1" as="geometry">
            <mxPoint x="670" y="520" as="sourcePoint" />
            <mxPoint x="780" y="472" as="targetPoint" />
          </mxGeometry>
        </mxCell>
        <mxCell id="1D17tGJ578Y-3MsZRP8g-11" value="" style="endArrow=classic;html=1;rounded=0;entryX=0;entryY=0.5;entryDx=0;entryDy=0;" edge="1" parent="1">
          <mxGeometry width="50" height="50" relative="1" as="geometry">
            <mxPoint x="670" y="595" as="sourcePoint" />
            <mxPoint x="780" y="547" as="targetPoint" />
          </mxGeometry>
        </mxCell>
      </root>
    </mxGraphModel>
  </diagram>
</mxfile>
